<svg version="1.2" xmlns="http://www.w3.org/2000/svg" viewBox="0 0 317 245" width="317" height="245">
	<title>Screenshot_20221230_104010</title>
	<style>
		.s0 { fill: #336130 } 
		.s1 { fill: #31602e } 
		.s2 { fill: #346231 } 
		.s3 { fill: #366333 } 
		.s4 { fill: #e6e7e6 } 
		.s5 { fill: #efefef } 
		.s6 { fill: #90161f } 
		.s7 { fill: #f01e27 } 
		.s8 { fill: #d71b24 } 
		.s9 { fill: #ee1d26 } 
		.s10 { fill: #93161f } 
		.s11 { fill: #db1b24 } 
		.s12 { fill: #c71a23 } 
		.s13 { fill: #edeeee } 
	</style>
	<g id="Background">
		<path id="Path 3" class="s0" d="m248.3 151.5l7.4 0.3c5.7 0.1 7.3 0.5 7.3 1.7 0 0.8-0.5 1.5-1 1.5-0.6 0-1.2-0.4-1.5-1-0.3-0.6-1.3-1-2.3-1-1.1-0.1-2.5 1.6-4 5-1.2 2.7-2.7 5-3.2 5-0.6 0-1.2-0.6-1.4-1.3-0.3-0.6-0.7-3.2-0.9-5.7zm29.3-0.5c0.2 0 0.1 0.4-0.1 1-0.3 0.6-0.1 1.2 0.5 1.5 0.5 0.3 1.2 3.1 1.6 6.3 0.3 3.7 0.2 6-0.6 6.7-0.8 0.7-1.1 0.6-0.8-0.5 0.1-0.8-0.3-1.4-1-1.2-0.6 0.1-1.2-0.1-1.1-0.5 0.1-0.5 0.1-1.4 0-2-0.1-0.8-0.6-1-1.4-0.6q-1.2 0.8-0.5-0.5c0.5-0.7-0.2-2.3-1.6-3.9-1.4-1.6-2.7-2.6-3-2.3-0.3 0.3-0.7 1.4-0.8 2.5-0.1 1.1-1 2.1-2 2.3-1.1 0.1-1.6-0.3-1.4-1 0.2-0.7 0.7-2.4 1-3.8 0.4-2.2 1.1-2.5 5.3-2.8 2.6-0.1 4.9-0.4 5.2-0.7 0.2-0.3 0.6-0.5 0.7-0.5zm33.3 0.6c0.3 0.3 0.7 1.2 0.8 2 0.2 0.8-0.1 1.3-0.6 1.1-0.5-0.1-2.6 2-4.5 4.8-2.9 4-3.6 4.6-3.6 2.8 0-1.3 0.7-2.5 1.5-2.8 0.8-0.3 1.5-1.4 1.5-2.5 0-1.1-0.7-2-1.5-2-0.8 0-1.7-0.6-1.9-1.3-0.2-0.8 0.9-1.3 3.3-1.5 2-0.2 3.8-0.5 4-0.8 0.2-0.2 0.7-0.1 1 0.2zm-195.6 0.8c1.2 0.4 2.7 0.8 3.4 0.9 0.6 0.1 1 0.6 1 1.2-0.1 0.6-0.7 1.3-1.2 1.7-0.6 0.4 0.2 0.8 1.7 0.8 2.3 0 3 0.6 3.8 3.3 0.6 1.7 1 4.4 1 6 0 1.5-0.6 3.8-1.3 5.2-0.6 1.4-1.7 2.5-2.2 2.4-0.6-0.1-1.6-0.1-2.3 0-0.7 0-1.1 1.3-1.1 2.9 0.1 1.5 0.1 5.3 0 8.4-0.1 5.5-0.2 5.7-2.1 4.5-1-0.6-1.8-1.5-1.7-1.9 0.1-0.4-0.7-1.4-1.8-2.3-1.1-0.9-1.4-1.4-0.8-1.1 1 0.4 1.3-0.8 1.2-4.7-0.1-4.9-0.2-5-1.3-2.4-0.6 1.5-1.9 2.7-2.9 2.7-0.9 0-1.7-0.4-1.7-1 0-0.6 0.7-2.4 1.5-4 0.8-1.6 1.9-3 2.5-3 0.5 0 1.2 0 1.5 0 0.3 0 1.8-0.7 3.5-1.5q3-1.5 3-3.8c0-1.2-0.4-3.3-0.8-4.6-0.4-1.6-2.2-3.1-4.7-4.3-2.2-0.9-3.4-1.8-2.8-1.8 0.7 0 1.5-1 1.9-2.1 0.4-1.7 1-2 2.7-1.5zm21.6-0.4c1.8 0 3.1 0.5 3.1 1.2 0 0.7-0.9 2-1.9 2.8-1.2 0.9-1.7 2.1-1.3 2.9 0.5 1 0.2 1.3-0.8 1-0.9-0.3-1.6-2.1-1.8-4.2-0.3-3.5-0.2-3.7 2.7-3.7zm159.1 16.1c1.1 1.1 2 2.3 2 2.9 0 0.6-0.9 2.2-2 3.7-1.7 2.3-2.1 4.2-2 10.8 0.1 6.1-0.3 8.3-1.5 9.2-0.8 0.7-2.2 1.1-3 0.8-1.2-0.4-1.5-2.5-1.3-11.9 0.2-6.9 0.7-11.4 1.3-11.3 0.5 0.1 1-0.5 1-1.4 0-0.9 0.3-1.5 0.7-1.3 0.5 0.2 1.2-0.4 1.8-1.5 1-1.8 1-1.8 3 0zm-102.6-0.1c0.2 0 0.4 0.3 0.4 0.7 0 0.5 0 1.4 0.1 2 0 0.7 0.4 1.1 0.8 0.9 0.5-0.2 0.7 2.1 0.5 5.2-0.2 3.6-0.7 5.3-1.2 4.7-0.5-0.6-1.3-3-1.6-5.5-0.4-2.5-0.4-5.3-0.1-6.3 0.4-0.9 0.8-1.7 1.1-1.7zm-139.6 2.7c0.7 1 1.6 1.7 2 1.5 0.4-0.1 0.9 1 1 2.5 0.4 2.5 0.2 2.8-2.2 2.3-1.4-0.3-2.8-0.1-3 0.5-0.3 0.6-0.6-0.8-0.7-3.1-0.1-2.2 0.2-4.4 0.7-4.8 0.5-0.4 1.5 0.1 2.2 1.1zm82.6-1.4c0.6 0.2 1.6 1.4 2.3 2.8 0.6 1.3 0.9 2.8 0.7 3.4-0.2 0.6-1.5 1.2-2.9 1.5-2.2 0.5-2.5 0.2-2.7-3.1-0.1-2 0.2-3.9 0.7-4.3 0.5-0.3 1.3-0.5 1.9-0.3zm-45.4 2.7l15 0.3v3.9c0 3.7-0.1 3.8-4 4q-4 0.3-4-1c0-0.6-0.5-1-1-0.7-0.6 0.3-1 2.5-1 5 0 3.1-0.5 4.7-1.5 5-0.8 0.3-2 0.5-2.5 0.5-0.6 0-1-3.5-1-8.5zm44.5 15.2c0.1 0.2 0.5 2 0.9 4 0.5 3 0.3 3.8-0.9 3.8q-1.5 0-1.7-3.3c-0.1-1.9 0.2-3.7 0.7-4 0.5-0.4 0.9-0.6 1-0.5z"/>
		<path id="Path 4" class="s1" d="m91 151.5h11c10.5 0 11 0.1 10.4 2-0.4 1.1-1.2 2.2-1.8 2.4-0.6 0.2 0.8 1.2 3.1 2.2 2.4 1 4.3 2.5 4.3 3.1 0.1 0.9-0.4 0.9-1.6-0.2-1.3-1.1-4.7-1.6-25.4-2v-3.8zm73.7 0.5c0.1 0.3 0.3 2.2 0.8 7.8l-14 0.2c-10.9 0.2-14.1-0.1-14.7-1.1-0.4-0.8 0.2-2 1.3-2.9 1.1-0.8 1.9-2 1.9-2.7 0-0.9 3.2-1.3 12.2-1.5 6.8-0.1 12.4 0 12.5 0.3zm102.9-0.9c0-0.1-0.4 1.3-0.9 3.1-0.6 1.8-1.2 3.8-1.4 4.5-0.1 0.7-0.7 1.3-1.3 1.3-0.6-0.1-1-1.9-1-4 0-3.4 0.4-4.1 2.2-4.4 1.3-0.2 2.3-0.4 2.4-0.5zm-202.4 17.8c8.8 0 12.7 0.3 13.5 1.3 0.7 0.7 1.2 2.6 0.9 7.2l-11.3-0.2c-11.3-0.2-11.3-0.3-11.6-2.8-0.1-1.4-0.6-2.5-1.2-2.4-0.6 0.1-1.3-0.5-1.7-1.2q-0.8-1.3-0.9 1.1c0 1.5-0.3 1.9-0.6 1-0.3-0.8-0.2-2 0.1-2.7 0.4-0.9 4-1.3 12.8-1.3zm72.1-0.1l26.2 0.6-0.4 3c-0.1 1.7-0.5 3.4-0.7 3.8-0.2 0.4-5.6 0.7-11.9 0.7-8.8 0-11.4-0.2-11.1-1.2 0.3-0.7-0.1-2.5-0.8-4.1zm-29.3 3.2c1.8 0 1.9 0.2 0.6 2.7-0.7 1.5-1.6 3.4-1.9 4.3-0.3 0.8-0.6-0.4-0.7-2.8 0-3.6 0.3-4.2 2-4.2zm-26.5 15.5v8l-7-0.1c-3.9-0.1-10.5-0.2-14.8-0.3-7.6-0.1-7.7-0.2-8.1-2.9-0.3-1.5 0-3.3 0.6-4 0.8-1 4.6-1.2 29.3-0.7zm54.5-0.6l29.5 0.2-0.4 4.2c-0.3 3.9-0.5 4.1-3.2 3.9q-2.9-0.2-3.1-2c-0.1-1.7-0.1-1.7-0.5 0-0.2 1.2-1.3 1.8-3.6 1.8-1.8 0-6.6 0.1-18.2 0.5l-0.3-4.3z"/>
		<path id="Path 5" class="s2" d="m177.2 152c1.8 0.5 3.7 0.5 4.2 0.2 0.5-0.4 0.7-0.3 0.3 0.3-0.3 0.6 0.4 2.1 1.5 3.5 1.1 1.4 1.6 1.8 1.2 1-0.4-0.9-0.3-1.2 0.2-0.7 0.5 0.5 1 1.3 1.2 1.8 0.1 0.5 0.2 1.3 0.2 1.9 0 0.6 0.4 0.8 1 0.5 0.6-0.3 0.9-0.2 0.9 0.3-0.1 0.4 0 2.7 0.1 5.2 0.2 2.9 0.4 3.6 0.7 2 0.3-1.4 0.9-2.8 1.4-3.3 0.5-0.4 0.7-0.4 0.4 0-0.3 0.5 0.5 1.9 1.7 3.2 1.3 1.3 1.6 2 0.9 1.5-1.3-0.8-1.4 0-0.8 4.8 0.6 4.9 0.5 5.7-0.8 5.3-0.8-0.3-1.4-0.8-1.3-1.3 0-0.4-0.2-1.5-0.5-2.5-0.4-1-1.2-1.4-1.9-1-0.9 0.4-0.8 0 0.2-1.3 0.8-1 1-1.6 0.5-1.2-0.6 0.4-1.9-0.6-3-2.2-1.1-1.6-2.3-2.6-2.8-2.2-0.4 0.4-0.5-0.3-0.2-1.5 0.3-1.3 0.2-2.1-0.2-1.9-0.5 0.3-1.6-0.8-2.5-2.5-1.2-1.8-2.3-2.6-3-2.1q-1.3 0.7-0.5-0.5c0.4-0.8 0-1.7-1-2.2-1.1-0.6-1.7-1.9-1.6-3.4 0.2-2.2 0.5-2.4 3.5-1.7zm60.5 0c0.8 0 1.3 1.4 1.3 4 0 2.5-0.5 4-1.2 4-0.8 0-1.3-1.5-1.3-4 0-2.6 0.4-4 1.2-4zm20.2 1c0.9 0 2.4 0.6 3.3 1.3 1 0.7 1.7 2.2 1.8 3.5 0 1.9-0.5 2.2-3.5 2.2-3.3 0-3.5 0.2-3.7 3.8-0.1 2-0.1 5.1-0.1 6.7 0.1 2.2-0.1 2.6-0.7 1.5q-1-1.5-1-0.2c0 0.7-1.3 1.2-3 1.2-2.4 0-3.1-0.5-3.3-2.3-0.1-1.2 0-5.6 0.2-9.7 0.4-6.7 0.6-7 1-3.1 0.4 2.5 1.2 4.6 1.9 4.8 0.7 0.2 2.1-1.9 3.3-4.7 1.3-3.2 2.7-5 3.8-5zm46 1.8c1 0.2 1.9 1.3 2 2.3 0 1.1-0.6 2.1-1.4 2.4-0.9 0.3-1.5 1.7-1.5 3.5 0 1.6-0.4 3-1 3-0.5 0-1 0.7-1 1.5 0 0.8-0.4 1.5-1 1.5-0.5 0-1 0.8-1.1 1.8 0 1.3-0.2 1.4-0.6 0.2-0.3-0.8-1.2-1.8-1.9-2.3-0.8-0.4-1.3-2-1.1-3.6 0.1-1.6 0.5-2.7 1-2.5 0.4 0.2 0.8-0.2 0.8-0.9 0.1-0.6 0.1-1.5 0-2 0-0.4 0.5-0.6 1.2-0.5 0.6 0.2 1.2-0.5 1.3-1.4 0-0.9 0.4-2 0.9-2.5 0.4-0.4 0.5-0.1 0.1 0.7q-0.7 1.5 0.4-0.1c0.6-0.9 1.9-1.4 2.9-1.1zm-24.4 0.9c0.3 0.7 1 1 1.7 0.5 0.8-0.4 1-0.3 0.6 0.3-0.4 0.6 0 1.9 0.8 3 0.9 1.1 1.2 1.3 0.8 0.5-0.4-0.9-0.3-1.2 0.2-0.7 0.5 0.5 1 2.2 1.2 3.8 0.2 2.5-0.2 2.9-2.3 2.9-1.9 0-2.5-0.5-2.5-2.3 0-1.2-0.2-3.8-0.5-5.7-0.3-1.9-0.3-2.9 0-2.3zm-69.4 10.3c0.4 1.4 0.7 8.5 0.9 29h-3.5c-2.6 0-4.2-0.8-6.2-3-1.6-1.6-2.7-3.2-2.5-3.5 0.1-0.3-1.5-2.2-3.5-4.2-2.1-2-3-3.4-2-3 1.5 0.6 1.7 0.1 1.7-4.1 0.1-4 0.3-4.4 1.3-3 0.7 1 1.6 1.4 2.1 1 0.5-0.4 0.6-0.3 0.3 0.3-0.4 0.6 0.5 2.1 4.2 6l0.6-2.5c0.3-1.4 0.6-5.2 0.8-8.5 0.3-5.3 0.4-4.9 0.6 2.5 0.3 7.7 0.4 8.1 1.1 4 0.4-2.5 1.3-6.5 2-9 1.2-4.2 1.4-4.3 2.1-2zm-89.2 7.7c0.3 0.2 0.7 1.2 0.8 2.1 0.2 1 0 1.4-0.5 1-0.4-0.4-1.5 0.2-4.4 3.7l0.8-3c0.4-1.6 1.2-3.3 1.7-3.7 0.6-0.4 1.3-0.4 1.6-0.1zm-31.1 1.3c0.8 0 1.2 2.4 1.2 7 0 4 0.4 7 1 7 0.6 0 1.7-0.2 2.5-0.5 1-0.3 1.5-1.9 1.5-5 0-2.5 0.5-4.7 1-5 0.6-0.3 1 1.5 0.9 4.7-0.1 2.9-0.4 6.7-0.8 8.3-0.4 2.2-1.3 3.1-3.1 3.3-1.5 0.2-2.8-0.2-3.2-1.2-0.5-0.9-1.1-5.4-1.5-10.1-0.4-6.2-0.3-8.5 0.5-8.5zm22.7 0c0.3 0 0.5 2 0.5 4.5 0 2.7-0.4 4.3-1 4-0.5-0.3-0.7-1.1-0.3-1.8q0.8-1.2-0.5-0.5c-0.6 0.5-1.4 0.4-1.7-0.2-0.3-0.6 0-1 0.5-1 0.6 0 1.2-1.1 1.5-2.5 0.3-1.4 0.7-2.5 1-2.5zm6.1 6.7c0.2 0.8 0.9 1 1.6 0.5 0.8-0.4 1-0.3 0.6 0.3-0.4 0.6 0.5 2.9 2 5.3 1.5 2.3 3 3.9 3.5 3.5 0.4-0.5 0.5 0.2 0.2 1.4-0.4 1.7-1.2 2.3-3.2 2.3-1.8 0-3.7-1-5.3-2.6-1.4-1.5-1.9-2.4-1.2-2.1 0.9 0.5 1.2-0.7 1.3-4.6 0-2.8 0.2-4.6 0.5-4z"/>
		<path id="Path 6" fill-rule="evenodd" class="s3" d="m102 151.4c5.8 0 8 0.1 5 0.3-3 0.2-7.8 0.2-10.5 0-2.8-0.2-0.3-0.3 5.5-0.3zm47.5 0c8.3 0 11.9 0.2 8 0.3-3.9 0.2-10.6 0.2-15 0-4.4-0.1-1.3-0.3 7-0.3zm28.5 0c1.8 0.1 4 2.2 8.9 8.6 3.6 4.7 5.5 7.6 2.2 4.5l-0.4 3c-0.3 2.5-0.4 2.3-0.6-1-0.1-2.9-1.2-5.4-4.1-9.3-2.3-3-4.9-5.3-6.3-5.5-1.9-0.3-1.8-0.4 0.3-0.3zm29.8-0.3c1.2 0 2.4 0.5 2.6 1.1 0.3 0.7 0.6 4.6 0.8 8.5 0.2 4 0 7.3-0.5 7.3-0.4 0-0.8-1-1-2.3-0.2-1.6-0.7-1-1.6 2.3-0.7 2.5-1.7 6.5-2.1 9-0.7 4.1-0.8 3.7-1.1-4-0.2-7.4-0.3-7.8-0.6-2.5-0.2 3.3-0.5 7.1-1.3 11l-2.1-2c-1.2-1.1-3-3.2-4-4.8-1.5-2.1-1.6-2.6-0.4-2.2 0.8 0.3 1.5 0.9 1.5 1.5 0 0.6 0.9 2 2 3.2 1.6 1.9 2.1 2 2.5 0.8 0.3-0.8 0.4-7 0.1-13.7-0.3-10.8-0.2-12.3 1.3-12.7 0.9-0.2 2.6-0.4 3.8-0.5zm17.3 0.2c2.4 0.2 2.5 0.5 3 14.7h-8l-0.2-6.9c-0.2-5.3 0.1-7.1 1.3-7.5 0.7-0.2 2.5-0.4 3.9-0.3zm13-0.3c1.4 0 3.1 0.5 3.8 1.2 0.7 0.7 1.1 2.6 1 4.3-0.2 1.9-0.9 3.1-2.1 3.2-1.4 0.3-1.7-0.5-1.7-3.7 0-2.5-0.5-4-1.3-4-0.7 0-1.2 1.4-1.2 3.4 0 1.9-0.3 3.7-0.8 4-0.4 0.3-1.1 0.4-1.7 0.1-0.6-0.3-1.1-2-1.2-3.9-0.1-2.2 0.3-3.6 1.3-3.9 0.7-0.3 2.5-0.6 3.9-0.7zm20 0.4c5.2 0 7.2 0.1 4.5 0.3-2.8 0.2-7 0.2-9.5 0-2.5-0.2-0.2-0.3 5-0.3zm48.8-0.4c1.5-0.1 3.3 0.5 3.9 1.2 1 1 0.5 2.4-2.7 7-2.2 3.2-4 6.2-4 6.8 0 0.6-0.4 1.1-0.8 1.2-0.5 0.2-2.4 2.5-4.3 5.3-3.1 4.6-3.4 5.8-3.9 13.9-0.4 6.8-0.9 9.1-2 9.4-1.2 0.4-1.3 0.2-0.2-0.9 0.8-0.9 1.2-4.3 1.2-16.9l8.5-12.3c4.7-6.7 8.3-12.5 8-13-0.3-0.4-1.9-0.7-3.6-0.7-2.9 0-3.8 1-19.2 23.5l0.1 9.2c0.1 5.1 0.4 9.7 0.7 10.3 0.3 0.6 0.1 1-0.5 1-0.6 0-1.2-1-1.5-2.3-0.3-1.2-0.5-5.8-0.3-10.2 0.3-7.8 0.4-8.2 5.1-14.7 2.6-3.7 4.8-7.1 4.7-7.7 0-0.6 0.3-1.2 0.8-1.4 0.4-0.1 2.2-2.1 4-4.5 2.4-3 4.1-4.2 6-4.2zm-215.8 8l20.5 0.6-10.2 0.2c-10.1 0.2-10.3 0.2-11.3-2.3-0.5-1.4-0.7-3.3-0.2-4.3 0.5-1.2 0.8-0.6 1.2 5.8zm156.7-7c0.2 0 0.4 3.7 0.3 8.2-0.1 4.6-0.2 9.3-0.1 10.5 0.1 1.9 0.7 2.3 3.1 2.3 1.7 0 3.2-0.6 3.4-1.3 0.3-0.6 0.4 4.4 0.1 23.8l-3.2 0.2c-1.9 0.2-3.5-0.2-3.8-1-0.2-0.6-0.6-9.8-0.8-20.2-0.2-10.4-0.2-19.8 0.1-20.8 0.2-0.9 0.6-1.7 0.9-1.7zm32 2c0.9 1.4 2 2.7 2.3 3 0.4 0.3 1 1.2 1.4 2 0.4 0.8 1.3 2.6 2.1 4 1.2 2.2 1.2 2.6 0 3.2-0.8 0.5-2.7 0.6-4.2 0.4-2.5-0.3-2.5-0.3 0.5-0.5 1.8 0 3.2-0.6 3.2-1.4 0-0.6-1.6-3.6-3.5-6.5-1.9-2.8-3.5-5.5-3.5-6 0-0.4 0.7 0.4 1.7 1.8zm-160-0.5l2.9 2.8c2.5 2.4 2.9 3.6 3.3 14.2l-0.7-5.2c-0.4-2.9-1.7-6.6-3.1-8.5zm55.7 3.5c0.3 0 3.2 3.6 6.3 8 3.2 4.4 6.1 7.8 6.5 7.5 0.4-0.2 0.6-0.1 0.3 0.3-0.3 0.4 0.1 1.8 1 3 0.8 1.2 1.3 2.2 1 2.2-0.3 0-2.8-3.2-5.7-7.2-2.8-4-5.4-7.5-5.8-7.8-0.3-0.2-1.4-1.7-2.3-3.2-1-1.5-1.6-2.8-1.3-2.8zm52.1 12.5l0.5 25.5h-8l-0.2-12.3c-0.1-6.8 0.2-12.6 0.7-13 0.5-0.4 2.3-0.6 7-0.2zm-162 7.9c7.7 0 10.6 0.2 6.5 0.4-4.1 0.2-10.4 0.2-14 0-3.6-0.2-0.2-0.4 7.5-0.4zm83 0c7.7 0 10.6 0.2 6.5 0.4-4.1 0.2-10.4 0.2-14 0-3.6-0.2-0.2-0.4 7.5-0.4zm-30.9 2.1l2.2 2.3c1.2 1.2 2.2 2.7 2.2 3.2 0 0.6 0.3 1 0.7 1.1 0.4 0 1.7 1.8 2.8 3.9 1.1 2.2 1.6 4.4 1.2 4.8-0.4 0.4-0.8 0.1-0.7-0.8 0-0.8-1.1-3-2.4-5-1.2-1.9-3.1-4.8-4.1-6.5zm-118.2 38.3c0.4 0.9 4.4 1.2 15 1.2 10.7 0 14.6-0.3 14.9-1.2 0.3-0.7 0.5-0.5 0.5 0.5 0.1 1.6-1.1 1.7-15 1.5-12.6-0.2-15.3-0.5-15.5-1.8-0.2-0.8-0.2-0.9 0.1-0.2z"/>
		<path id="Path 7" class="s4" d="m100.5 171.4c5.5 0 8 0.1 5.5 0.3-2.5 0.2-7 0.2-10 0-3-0.2-1-0.3 4.5-0.3zm195.2 10.1c0.2 2.2 0.2 6 0 8.5-0.2 2.5-0.4 0.7-0.4-4 0-4.7 0.2-6.7 0.4-4.5z"/>
		<path id="Path 9" class="s5" d="m120 69c2.5 0 2.9 0.3 2.5 2q-0.5 2-3 2c-1.8 0-2.5-0.5-2.5-2 0-1.6 0.7-2 3-2zm-14.8 120c0.7 0 2.6 1.2 7.2 5.5l-2.4 0.7c-1.4 0.3-3.3 0.6-4.3 0.7-1.3 0.1-1.7-0.7-1.7-3.4 0-2.1 0.5-3.5 1.3-3.5z"/>
		<path id="Path 11" class="s0" d="m21.4 153c0.3 0 0.6 1.5 0.8 3.4 0.2 1.9 0 3.2-0.4 3-0.5-0.2-1 0-1.3 0.6-0.3 0.6-0.9 0.8-1.5 0.5-0.6-0.3-1.7 0.5-2.5 1.8q-1.4 2.2-0.5 3.5c0.6 0.6 1.4 1 2 0.7 0.6-0.3 1-0.2 1 0.3 0 0.4 0.7 0.8 1.5 1 0.8 0.1 2.2 0.3 3 0.5 0.8 0.1 1.5 0.5 1.5 1 0 0.4 0.8 0.6 1.8 0.4 0.9-0.2 4.3 0.9 7.5 2.5 3.8 1.9 6.2 3.8 7.2 5.8 0.8 1.6 1.5 3.9 1.5 5 0 1.1-0.7 3.5-1.6 5.3-1.5 3-1.7 3.1-3.2 1.6-1.5-1.5-2-1.5-4.2-0.4-1.4 0.8-3.1 1-3.8 0.7-0.7-0.4-1.1-1.1-0.9-1.7 0.2-0.6 1.1-0.9 2.1-0.7 0.9 0.1 1.6-0.2 1.6-0.8 0-0.6 0.4-0.8 1-0.5 0.6 0.3 1.4-0.2 2-1 0.6-0.8 0.9-2.3 0.7-3.2-0.2-1-0.9-1.7-1.5-1.5-0.7 0.1-1.2-0.2-1.2-0.8 0-0.6-0.4-0.8-1-0.5-0.6 0.3-1.2 0.1-1.5-0.5-0.3-0.6-0.9-0.8-1.5-0.5-0.6 0.3-1.4-0.1-2-0.7-0.5-0.7-1.4-2.7-3-7.3l0.5 7.2-3.2-1.4c-1.8-0.7-3.3-1.1-3.3-0.8 0 0.3-0.7-0.1-1.6-0.7-0.9-0.7-2.9-2.5-4.5-4-2.6-2.5-2.9-3.4-2.6-8.2 0.1-3 0.5-5.2 1-5 0.4 0.2 0.7 0 0.6-0.4 0-0.4 1.6-1.3 3.5-2 2-0.7 4-1 4.6-0.7 0.6 0.3 1 0.1 1-0.5 0-0.6 0.2-1 0.4-1zm7.6 0l4 2.5c2.2 1.4 4.4 2.3 5 2 0.6-0.3 1.5 0.1 2 0.7 0.6 0.7 1.2 2.9 1.4 4.8 0.4 3.3 0.2 3.5-2.5 3.5-2.1 0-2.9-0.5-2.9-1.8 0-0.9-1.6-2.6-3.5-3.7-2.8-1.6-3.5-2.6-3.5-5zm-17.5 26c0.8 0 1.7 0.5 2 1 0.3 0.6 0.9 0.8 1.5 0.5 0.6-0.3 0.7 0.1 0.2 1-0.4 1 0 2.2 1.3 3.5 1.1 1.1 2.3 1.8 2.7 1.5 0.4-0.3 0.8 0 0.8 0.5 0 0.6 0.7 0.8 1.5 0.5q1.5-0.5 1 1c-0.3 0.8-1.3 1.5-2.3 1.5-0.9 0-2.3-0.5-3-1.2-0.8-0.7-2-1.4-2.8-1.5-0.8-0.2-1.4 0.4-1.4 1.2 0 0.8-0.7 1.7-1.5 2-0.8 0.3-1.9 0-2.3-0.7-0.5-1-0.3-1 0.8-0.3 1.2 0.8 1.3 0.6 0.6-1-0.5-1.1-1.1-2.9-1.4-4-0.3-1.1-1-2.6-1.6-3.4-0.9-1.1-0.8-1.3 0.1-0.8 0.7 0.4 1.5 0.3 1.8-0.3 0.3-0.5 1.2-1 2-1z"/>
		<path id="Path 12" class="s1" d="m51.4 151.5l30.6 0.5 0.5 7.7-14.5 0.2c-11 0.2-14.8-0.1-15.7-1.1-0.7-0.7-1.2-2.7-1.1-4.3z"/>
		<path id="Path 13" class="s6" d="m99.4 29.2c0.5 0.2 1.7 3.7 2.8 7.8 1 4.1 1.7 9.8 1.6 12.5-0.1 2.8 0.1 5.6 0.5 6.3 0.4 0.6 0.3 1.8-0.2 2.5-0.5 0.6-1.2 2.8-1.6 4.7-0.4 1.9-1.1 4.1-1.6 4.8-0.5 0.6-0.8 1.5-0.8 2 0.1 0.4 0.1 1.3 0 2-0.1 0.8-2.5 1.2-8.6 1.2-8 0-8.5-0.1-8-2 0.4-1.8 1.3-2 7.8-2 4.1 0 7.7-0.3 8-0.7 0.4-0.5 0.1-1.5-0.7-2.3-0.8-0.8-2.2-3.7-3.1-6.5-1.1-2.9-1.8-8.1-1.8-12.5 0-5.9 0.5-8.6 2.4-12.8 1.3-2.8 2.8-5.1 3.3-5z"/>
		<path id="Path 14" class="s2" d="m22.3 152.9c0.6 0.9 1.2 2.6 1.4 3.8 0.2 1.3-0.1 2.3-0.7 2.3-0.6 0-1-1.5-1-3.3 0-1.7-0.4-2.8-0.8-2.2-0.4 0.6-1.6 1.1-2.7 1.1-1.1 0.1-2.8 0.4-3.8 0.8-0.9 0.3-1.8 0.2-1.9-0.2-0.1-0.4 1.8-1.5 4.2-2.4 3.9-1.4 4.4-1.4 5.3 0.1zm8.9-0.6c1.3 0.1 2.9 0.8 3.5 1.4 0.7 0.7 1.6 1.1 2 0.9 0.5-0.2 0.9 0.4 1 1.5 0.2 1 0.1 1.9-0.2 1.9-0.3 0-2.3-1.1-4.5-2.5-2.2-1.4-4-2.7-4-3 0-0.3 1-0.4 2.2-0.2zm-16.8 35.1c0.8 0 2.1 0.7 2.8 1.4 0.7 0.7 2.1 1.2 3 1.2 1 0 2-0.6 2.2-1.3 0.3-0.6 0.4 0.7 0.3 2.9-0.1 3.1-0.6 4.1-1.7 3.9-0.8-0.2-2.1-0.5-2.9-0.7-0.7-0.1-2.3-1.2-3.6-2.3-1.2-1.1-2.1-2.7-1.9-3.6 0.2-1 1-1.6 1.8-1.5zm23.5 2c0.9 0.7 2.3 1.1 3.1 0.8 1.3-0.5 1.3-0.4 0 1-0.8 0.9-1.7 1.4-2 1.2-0.3-0.2-1.6 0.3-3 1.3-1.4 0.9-3.6 1.7-5 1.8-2.1 0.1-2.5-0.3-2.5-2.6 0-2.3 0.4-2.7 2.7-2.7 1.5 0.1 3.3-0.4 3.9-1 0.9-0.9 1.6-0.8 2.8 0.2z"/>
		<path id="Path 15" class="s3" d="m66.8 151.2c8.3-0.1 15.4 0.1 15.6 0.6 0.2 0.4-4.4 0.6-10.2 0.4-5.9-0.1-12.9-0.4-15.7-0.5-2.7-0.2 1.9-0.4 10.3-0.5zm-32 1.8c0.4 0 2.2 1.2 4 2.7 2.4 2.1 3.4 3.8 4.2 10.8l-0.9-3.5c-0.5-1.9-2.6-5-4.5-6.7-1.9-1.8-3.2-3.3-2.8-3.3zm3 19.5l3.1 3.3c2.3 2.4 3.1 4.1 3.1 7 0 2-0.7 4.6-1.5 5.7-1.6 2-1.6 1.9-0.6-0.2 0.6-1.3 1-3.8 0.9-5.7-0.1-1.9-1.3-4.9-2.6-6.8zm142.7 8l0.5 14.5-3.3 0.4c-1.7 0.2-3.5 0.2-4 0-0.4-0.2-0.8-3.4-0.9-7.2-0.1-3.8 0.3-7.2 0.7-7.6 0.5-0.3 2.3-0.5 7-0.1zm-137.7 30.7c1.4 0.2 2.7 0.8 2.9 1.3 0.1 0.6-0.9 1-2.5 1-1.5 0-2.9 0.5-3.1 1-0.2 0.6 1.3 1.8 3.3 2.8 2 0.9 3.6 2.4 3.6 3.2 0 0.9-0.7 2.2-1.6 3-0.8 0.9-2.1 1.5-2.7 1.5-0.7 0.1-2.1-0.6-3.2-1.4-1.9-1.3-1.8-1.4 1.5-1.2 2.6 0.1 3.5-0.3 3.7-1.6 0.2-1.2-0.7-2.1-2.7-2.8-1.7-0.5-3.2-1.6-3.5-2.5-0.3-0.8 0-2.2 0.7-3 0.6-0.9 2.2-1.4 3.6-1.3zm24.9 0.2c1.6 0.2 3.4 0.6 4 1 0.7 0.3 1.3 1.4 1.3 2.4 0 0.9-0.4 2.2-1 2.7-0.7 0.7-0.7 1.9 0 3.8 0.5 1.5 0.7 2.7 0.2 2.8-0.4 0-1.3-1.2-2-2.5-0.6-1.4-1.9-2.6-2.7-2.6-0.9 0-1.5 1-1.5 2.5 0 1.4-0.5 2.5-1 2.5-0.6 0-1-2.1-0.9-4.7 0-2.6 0.3-5.5 0.5-6.5 0.3-1.2 1.2-1.6 3.1-1.4zm14-0.4c1.8 0 3.3 0.5 3.3 1 0 0.6-1.4 1-3 1-2.3 0-3 0.5-3 2 0 1.6 0.7 2 3 2 1.7 0 2.8 0.5 2.5 1-0.3 0.6-1.5 0.9-2.8 0.8-1.6-0.2-2.3 0.3-2.5 2-0.2 1.9 0.3 2.2 3 2.3 2.7 0.1 2.9 0.2 1.3 0.8-1.1 0.4-3 0.6-4.3 0.5-2-0.3-2.2-1-2.4-6.2-0.1-3.2 0.2-6.1 0.7-6.5 0.5-0.4 2.3-0.7 4.2-0.7zm33.5 0.1c3.6 0 4 0.2 2.7 1.2-0.9 0.7-2.1 3.7-3.7 12.2l-0.1-5.7c-0.1-4.4-0.5-5.8-1.6-5.8-0.8 0-1.5-0.4-1.5-1 0-0.5 1.9-1 4.2-0.9zm34.3-0.1c1.4 0 3.4 1 4.5 2.3 1.1 1.2 2 3.2 2 4.5 0 1.2-1.1 3.4-2.5 4.7-1.9 1.9-3.2 2.4-5.3 1.9-1.5-0.3-3.3-1.1-4-1.7-0.7-0.6-1.3-2.6-1.3-4.4 0.1-1.9 0.9-4.1 2.1-5.3 1.1-1.1 3.1-2 4.5-2zm15.2 0c1.8 0 3.3 0.5 3.3 1 0 0.6-1.4 1-3 1-2.3 0-3 0.5-3 2 0 1.5 0.7 2 2.5 2 1.4 0 2.5 0.5 2.5 1 0 0.6-1.1 1-2.5 1-2 0-2.5 0.5-2.5 2.5 0 1.4-0.5 2.5-1 2.5-0.6 0-1.1-2.6-1.2-5.8-0.1-3.2 0.2-6.1 0.7-6.5 0.5-0.4 2.3-0.7 4.2-0.7zm18.3 5.5l1.7-2.5c1-1.3 2.1-2.2 2.5-2 0.4 0.3-0.4 2.1-1.7 4-1.4 2-2.6 4.4-2.6 5.5-0.1 1.6-0.2 1.5-0.8-0.5-0.4-1.3-1.5-3.6-2.4-5-1-1.3-1.7-3.1-1.7-4 0-0.9 0.9-0.3 5 4.5zm15.6-5.5c1.5 0 3.1 1.1 4.3 2.7 1.1 1.6 1.7 3.8 1.4 5.3-0.2 1.4-1.4 3.3-2.6 4.3-1.5 1.3-3 1.7-4.7 1.2-1.4-0.3-3.2-1.2-4-2-0.8-0.8-1.2-1.7-0.8-1.9 0.5-0.3 1.5 0.1 2.3 0.9 0.8 0.9 2.4 1.5 3.4 1.5 1.1 0 2.7-0.6 3.5-1.5 0.9-0.8 1.6-2.1 1.6-3 0-0.8-0.5-2.4-1-3.5-0.6-1.3-2-2-3.8-2-1.5 0-3.4 0.6-4 1.3-0.7 0.7-1.2 2-1.2 3 0 0.9-0.5 1.7-1 1.7-0.6 0-0.7-1-0.4-2.2 0.3-1.3 1.5-3.1 2.6-4 1.1-1 3.1-1.8 4.4-1.8zm26.3 0.1l2.8 0.3c1.5 0.2 3.4 0.6 4 1 0.7 0.3 1.3 1.8 1.3 3.1 0 1.4-0.5 2.8-1 3q-1 0.5 0 2.5c0.5 1.1 1 2.3 1 2.5 0 0.3-0.5 0.5-1 0.5-0.6 0-1.2-1.1-1.5-2.5q-0.5-2.5-2.5-2.5c-1.4 0-2.1 0.8-2.4 2.8-0.1 1.5-0.4-0.3-0.5-4zm40.1-0.1c1.7 0 3.2 0.5 3.5 1 0.3 0.6-1 1-3 1-2.8 0-3.4 0.4-3.2 1.8 0.1 1.1 1.2 1.8 3 2 1.5 0.1 2.5 0.7 2.2 1.2-0.3 0.6-1.6 1-3 1-2.1 0-2.5 0.5-2.5 2.8 0 1.5-0.2 2.5-0.5 2.2-0.3-0.2-0.6-2.8-0.7-5.7-0.1-2.9 0.2-5.7 0.6-6.3 0.4-0.5 2-1 3.6-1zm12.2 0c1.5 0 3.1 0.5 3.5 1 0.4 0.5-0.8 1-2.8 1.2-2.2 0.2-3.4 0.8-3.4 1.8 0 0.9 1.1 1.6 2.7 1.8 1.6 0.1 2.8 0.7 2.8 1.2 0 0.6-1.4 1-3 1-2.3 0-2.9 0.4-2.7 1.8 0.1 1 1.4 2 3.2 2.4 2.9 0.6 2.9 0.6-4.5 0.8l-0.2-5.8c-0.1-3.2 0.2-6.1 0.7-6.5 0.5-0.4 2.1-0.7 3.7-0.7zm-153.5 1c0.5 0 1.7 0.9 4.8 4.1l2.3-2.3c1.2-1.3 2.2-1.8 2.2-1.3 0 0.6-0.9 2.2-2 3.5-1.1 1.4-2 3.8-2 5.3 0 1.5-0.5 2.7-1 2.7-0.6 0-1-1.2-1-2.7 0-1.5-0.9-3.9-2-5.3-1.1-1.3-2-2.8-2-3.2 0-0.4 0.3-0.8 0.7-0.8zm85.9 0c0.5 0 0.8 1.3 0.6 2.8-0.1 1.5 0.3 3.9 1.1 5.2 0.7 1.4 1.9 2.6 2.7 2.8 0.8 0.1 2.2-0.2 3-0.7 0.8-0.6 1.8-2.9 2.7-9.6l0.2 4.5c0.1 2.7-0.3 5-1.1 5.7-0.7 0.6-2.2 1.4-3.3 1.7-1.1 0.4-2.8 0.1-3.8-0.6-1.3-0.9-2.1-3-2.4-6.5-0.3-2.9-0.2-5.3 0.3-5.3zm34.6 0.5c0.6 0.4 1 2.9 0.9 5.6-0.1 4.7 0 4.9 2.6 5.3 2.1 0.2 1.9 0.4-4.7 0.6l0.1-6c0.1-3.8 0.5-5.9 1.1-5.5zm45.4 5.3c0.3 0.9 4.2 1.2 14.9 1.2 10.7 0 14.6-0.3 15-1.2 0.3-0.7 0.3-0.6 0.2 0.2-0.3 1.3-3 1.6-15.5 1.8-13.9 0.2-15.2 0.1-15.1-1.5 0-1 0.2-1.2 0.5-0.5z"/>
		<path id="Path 16" class="s7" d="m224.7 40c0.3 0 0.3 3.9 0.1 8.8-0.3 6.8-1 9.9-5.8 20.2h8.5c7.8 0 8.5 0.2 8.5 2 0 1.8-0.7 2-8 2-6 0-7.9-0.3-7.4-1.3 0.3-0.6-0.2-1.5-1-1.9-1.4-0.7-1.2-1.6 1.1-6.5 2.1-4.5 2.8-7.7 3.1-14.6 0.2-4.8 0.6-8.7 0.9-8.7z"/>
		<path id="Path 17" class="s4" d="m144 39.5c0.5 0.6 2.7 10.2 5 21.5 2.3 11.3 4.6 20.9 5 21.5 0.5 0.6 1 0.2 1.4-1 0.2-1.1 1.5-6.5 2.7-12 1.2-5.5 2.5-10.7 2.9-11.5 0.6-1.2 0.9-1.1 1.3 0.5 0.3 1.1 1.1 4 1.7 6.5 0.6 2.5 1.4 4.1 1.9 3.5 0.4-0.6 1.3-2.8 1.9-5 0.6-2.2 1.5-5.9 2.1-8.3 0.6-2.3 1.5-4.2 2.1-4.2 0.6 0 1.9 3.3 3.1 7.3 1.1 3.9 2.2 8 2.5 9 0.4 1.5 2.3 1.7 20.6 1.9 13.4 0.2 16.1 0.3 8 0.5-10.8 0.3-12.2 0.5-12.2 2.1 0 1.5-1 1.7-19 1.2l-0.8-3.2c-0.4-1.7-1.1-3.3-1.7-3.5-0.6-0.2-2.1 3.9-3.4 8.9-1.3 5.1-2.7 10-3.1 10.8-0.5 1.1-1.1 0.3-2-2.5-0.6-2.2-1.3-4.7-1.6-5.5-0.2-0.8-0.6-1.3-0.9-1-0.2 0.3-1.6 5.2-3 11-1.4 5.8-2.8 11.6-3.1 13-0.4 2-0.7 2.2-1.4 1-0.5-0.8-2-6.7-3.4-13-1.4-6.3-3.4-15.3-4.6-20-1.1-4.7-2.2-8.7-2.4-9-0.3-0.3-0.9 2.5-2.6 13h-3.5c-2.8 0-3.5-0.4-3.5-2 0-1.1 0.6-2 1.2-2 0.8 0 1.8-2.5 2.6-6.2 0.7-3.5 2.2-10.4 3.3-15.3 1.2-5.2 2.4-8.6 2.9-8zm-41.3 32.7c0.1-0.1 0 0.2-0.2 0.8-0.3 0.6-4.5 0.9-20 0.6l10-0.6c5.5-0.3 10.1-0.7 10.2-0.8z"/>
		<path id="Path 18" class="s8" d="m175.8 18.3c0.5 0.4 0.8 2 0.8 3.6-0.1 2.6 0.3 3 3.4 3.5 1.9 0.3 5.1 1.6 10.5 5.2l0.5 22.4-4.5 2c-4 1.8-4.6 2.5-5.8 6.7-0.6 2.5-1.7 4.8-2.2 5-0.6 0.2-1.9-2.9-3-6.9-1-4-2-7.9-2.2-8.5-0.2-0.7 0.2-1.2 0.8-1 0.6 0.1 1.7-1.8 2.6-4.3 0.8-2.5 1.3-5.6 1-7-0.3-1.4-0.8-3.6-1.2-5-0.3-1.4-0.8-3.6-0.9-5-0.2-1.4-0.6-4-1-5.8-0.3-1.9-0.2-3.2 0.4-3.2 0.6 0 0.8-0.5 0.5-1.2-0.3-0.6-0.1-0.8 0.3-0.5zm-3.5 48.1c0.5 0.2 0.8 1.1 0.8 2-0.1 0.9 0.8 2.6 1.9 3.8 1.7 2 2.6 2.2 6 1.5 2.2-0.4 3.9-0.4 3.8 0 0 0.5 0.1 1.5 0.5 2.3 0.3 0.8 0.8 4.4 1.1 8 0.5 6.5 0.5 6.5-4.2 13.4-2.6 3.8-4.9 7-5.2 7.1-0.3 0.2-0.5-3.3-0.5-7.7 0-6-0.5-8.8-1.8-10.9-0.9-1.6-2.1-2.9-2.7-2.9-0.6 0-1-0.9-1-2 0-1.1-0.6-2.2-1.3-2.5-0.9-0.5-0.9-1.8 0.3-6.5 0.8-3.3 1.9-5.8 2.3-5.6z"/>
		<path id="Path 19" class="s9" d="m191.5 14.8l4.5 0.5c2.5 0.3 5.2 0.7 6.1 0.9 0.8 0.2 3.3 1.2 5.4 2.3 2.2 1.1 5.8 3.8 8 6 2.3 2.2 4.5 5 4.8 6.2 0.4 1.3 1.1 2.3 1.7 2.3 0.6 0 0.9 0.3 0.9 0.7-0.1 0.5-0.1 1.1 0 1.5 0 0.5 0.3 1.2 0.6 1.8 0.3 0.6 0.5 1.3 0.6 1.7 0 0.5 0 4.2-0.1 8.3-0.1 4.6-0.9 9.6-2.1 13-1.1 3-2.2 6.4-2.3 7.5-0.2 1.1 0.2 2.3 0.8 2.6 0.6 0.4 0.8 1.2 0.4 1.8-0.5 0.6-1.2 1.1-1.8 1.1-0.6 0-0.8-1-0.7-2.3 0.4-2.1 0.2-2.2-15.3-1.7l0.6-6.3c0.3-3.4 0.7-11.9 1-19 0.3-10.4 0.1-13.3-1.2-16-0.9-1.7-2.6-4.3-3.7-5.7-1-1.4-3.3-3.6-5.1-4.9zm14.3 58.3c1.5 0 4.4 0.3 10 1.5l-7.1 7.2c-4 4-8.3 8-9.7 8.9-1.6 1-2 1.1-1.2 0.2 0.7-0.7 1.3-2.5 1.3-3.8 0-1.4 0.7-4.6 1.6-7 0.8-2.5 1.7-5.1 1.9-5.8 0.2-0.7 1.6-1.2 3.2-1.2z"/>
		<path id="Path 20" class="s10" d="m125.5 15c3.3 0 8.4 0.7 16.5 3l-0.5 6.3c-0.3 3.4-1 11.6-1.5 18.2-0.5 6.6-1.4 13.8-2 16-0.5 2.2-1 5.5-1 10.5h-18.5c-11.3 0-18.7-0.4-19-1-0.3-0.6 0-0.9 0.6-0.7 0.7 0.1 1.6-1.4 2.1-3.3 0.4-1.9 1.3-4.3 1.8-5.2 0.6-1 0.7-2.4 0.3-3-0.4-0.7-0.6-3.3-0.4-5.8 0.1-2.5-0.5-7.7-1.4-11.5-0.9-3.8-2-7.7-2.5-8.5-0.6-1.1 0.3-2.6 3.3-5.7 2.5-2.5 6.7-5.3 10.2-6.8 4.1-1.6 7.9-2.5 12-2.5zm-11.3 58c5.7 0 13.8 0.3 25.8 1.5v8.3c0 5.9-0.6 9.6-2.1 13.4-1.1 2.9-2.3 5.4-2.5 5.5-0.2 0.2-3.7-2.1-7.6-5-4-3-11-8.8-15.5-13-4.6-4.3-8.3-8.4-8.3-9.2 0-1.2 1.8-1.5 10.3-1.5z"/>
		<path id="Path 21" class="s11" d="m189.4 15c1.2 0 3.5 1 5.2 2.2 1.8 1.3 4.1 3.4 5.1 4.8 1.1 1.4 2.8 4 3.7 5.8 1.3 2.6 1.5 5.5 1.2 15.9-0.3 7.1-0.7 15.6-1.6 25.3h-11.8c-6.4 0-12-0.3-12.4-0.7-0.5-0.5-0.4-1.2 0.1-1.8 0.5-0.6 1.4-2.9 2-5.3 1-3.6 1.7-4.5 10.1-8.2l-0.5-22.4-3.5-2.4c-1.9-1.2-5.1-2.6-7.1-3-2.5-0.5-3.6-1.2-3.4-2.2 0.1-0.8-0.1-2.1-0.6-2.8q-0.9-1.2 1.1-2.2c1.1-0.6 3.7-1.3 5.7-1.6 2.1-0.3 4-0.8 4.2-1 0.2-0.2 1.4-0.4 2.5-0.4zm4.2 58.1c7.5 0 8.3 0.2 8.3 2 0.1 1-0.6 3.6-1.4 5.6-0.9 2.1-1.5 4.9-1.5 6.3 0 1.5-1.2 3.8-2.9 5.5-1.7 1.7-3.8 3.7-4.8 4.6-1 0.8-3.7 2.9-6.1 4.7-2.3 1.8-4.6 3.2-5.2 3.2-0.6 0-1 0.3-1 0.7 0 0.5-0.9 1.4-2 2-1.9 1.2-1.9 1.1-0.8-1 0.6-1.2 3.3-5.4 10.7-16.2l-0.6-7c-0.3-3.8-1-7.4-1.4-8-0.5-0.6-0.6-1.3-0.3-1.7 0.4-0.4 4.4-0.7 9-0.7z"/>
		<path id="Path 22" class="s12" d="m142.4 18l3.6 2.2c1.9 1.2 4.6 3 6 4.1 1.4 1 3.6 3.6 7.2 9.2l5.1-5.7c2.9-3.2 5.8-5.8 6.4-5.8 0.7 0 1.4-0.6 1.6-1.2 0.2-0.8 0.9-0.4 1.5 1 0.7 1.2 1.4 3.9 1.6 6 0.3 2 0.8 4.8 1.1 6.2 0.4 1.4 0.9 3.6 1.2 5 0.3 1.4 0 4.3-0.8 6.5-0.7 2.2-1.6 4.6-2.1 5.3-0.4 0.6-1.6 1-2.6 0.6-1-0.3-1.8 0-1.9 0.8-0.1 0.7-0.4 2.2-0.7 3.3-0.2 1.1-0.5 2.2-0.6 2.5-0.1 0.3-0.3 0.9-0.5 1.5-0.1 0.6-0.3 1.2-0.4 1.5-0.2 0.3-0.5 1.4-0.7 2.5-0.3 1.1-0.6 2.6-0.7 3.3-0.1 0.6-0.6 1.1-1.1 1-0.5-0.2-1-1-1.2-1.8-0.1-0.8-0.6-2.6-0.9-4-0.4-1.4-0.7-3.1-0.8-3.7-0.1-0.7-0.9-1.3-1.7-1.3-0.8 0-1.3 0.2-1 0.4 0.3 0.3-0.1 3.1-0.8 6.3-0.7 3.2-1.5 6.7-1.7 7.8-0.3 1.1-0.7 3.3-1.1 5-0.3 1.7-0.8 3.9-1.1 5-0.3 1.2-0.8 1.6-1.3 1-0.4-0.6-2.7-10.2-5-21.5-2.3-11.3-4.5-20.9-5-21.5-0.5-0.6-1.5 1.5-4 11l0.5-10.5c0.2-5.8 0.8-13.1 1.2-16.2zm1.1 41.9c0.2 0.3 1.3 4.4 2.5 9 1.1 4.7 3.2 13.7 4.6 20 1.3 6.4 2.9 12.2 3.3 13 0.7 1.2 1.1 0.9 1.6-1.5 0.4-1.6 1.6-6.6 2.7-11 1.1-4.4 2.1-8.6 2.3-9.5 0.2-0.8 0.3-1.7 0.4-2 0.1-0.2 0.7 0.7 1.5 2 0.7 1.4 1.2 3.1 0.9 3.8-0.2 0.7 0.1 1.2 0.6 1.2 0.6 0 0.8 0.7 0.5 1.5q-0.5 1.5 1 1c0.9-0.2 1.3-0.9 1-1.5-0.2-0.5 0-1.2 0.5-1.5 0.6-0.2 0.8-1.1 0.5-2-0.2-0.8 0-1.5 0.5-1.5 0.6 0 1-0.6 1-1.5 0-0.8 0.5-1.2 1-1 0.6 0.3 1 1.4 1 2.5 0 1.1 0.5 2 1 2 0.6 0 1.8 1.3 2.8 2.8 1.3 2 1.7 4.8 1.7 11.6 0 6.1-0.4 9.6-1.5 11.3-0.8 1.4-1.7 2.4-2.1 2.2-0.4-0.2-2.8 1.6-5.5 3.9-2.7 2.4-5.4 4.7-6.1 5.3-0.7 0.5-1.6 0.9-2 0.9-0.4 0-3.3-2.1-6.4-4.7-3-2.6-8.3-6.8-17.5-13.8l2.3-5.7c1.8-4.5 2.3-7.7 2.3-22.8l-10.5-0.6 11.5-0.4 1.1-6.7c0.6-3.7 1.3-6.5 1.5-6.3z"/>
		<path id="Path 23" class="s13" d="m149.8 213.3c1 0.1 1.7 0.4 1.5 0.7-0.1 0.3 0.2 1.4 0.6 2.5 0.6 1.2 0.5 2.8-0.3 4-0.6 1.1-1.7 2.1-2.4 2.2-0.6 0.2-1.8-0.5-2.6-1.5-0.7-0.9-1.1-2.6-0.8-3.7 0.3-1.1 0.9-2.5 1.4-3.2 0.5-0.6 1.7-1.1 2.6-1z"/>
		<path id="Path 24" class="s3" d="m52 211h3.5c1.9 0 3.5 0.4 3.5 1 0 0.6-1.3 1-3 1-2.3 0-3 0.4-3 2 0 1.6 0.7 2 3 2 1.7 0 3 0.4 3 1 0 0.6-1.3 1-3 1-2.3 0-3 0.4-3 2 0 1.6 0.7 2 3.3 2.1 2.6 0 2.8 0.2 1.2 0.8-1.1 0.4-2.8 0.6-3.8 0.4-1.4-0.2-1.7-1.4-1.7-6.8zm38.7 1c0.1 0 1.8 1.6 3.5 3.6 1.8 1.9 3.6 3.1 4 2.7 0.3-0.4 0.8-2.2 1.1-3.8 0.2-1.6 0.4-0.1 0.6 10l-3.9-4.5c-3.7-4.2-4-4.3-4-2 0 1.4-0.5 3.2-1 4-0.8 1.1-1-0.1-0.9-4.3 0.1-3.1 0.4-5.7 0.6-5.7z"/>
	</g>
</svg>